<!--?xml version="1.0" encoding="us-ascii" standalone="no"?--><svg xmlns="http://www.w3.org/2000/svg" xmlns:xlink="http://www.w3.org/1999/xlink" contentstyletype="text/css" height="1222px" preserveAspectRatio="none" style="width:1101px;height:1222px;background:#FFFFFF;" version="1.1" viewBox="0 0 1101 1222" width="1101px" zoomAndPan="magnify"><defs></defs><g><!--class Pokemon--><g id="elem_Pokemon"><rect codeline="1" fill="#F1F1F1" height="650.9844" id="Pokemon" rx="2.5" ry="2.5" style="stroke:#181818;stroke-width:0.5;" width="639" x="7" y="565"></rect><ellipse cx="288.25" cy="581" fill="#ADD1B2" rx="11" ry="11" style="stroke:#181818;stroke-width:1.0;"></ellipse><path d="M290.5938,576.6719 C289.6563,576.2344 289.0625,576.0938 288.1875,576.0938 C285.5625,576.0938 283.5625,578.1719 283.5625,580.8906 L283.5625,582.0156 C283.5625,584.5938 285.6719,586.4844 288.5625,586.4844 C289.7813,586.4844 290.9375,586.1875 291.6875,585.6406 C292.2656,585.2344 292.5938,584.7813 292.5938,584.3906 C292.5938,583.9375 292.2031,583.5469 291.7344,583.5469 C291.5156,583.5469 291.3125,583.625 291.125,583.8125 C290.6719,584.2969 290.6719,584.2969 290.4844,584.3906 C290.0625,584.6563 289.375,584.7813 288.6094,584.7813 C286.5625,584.7813 285.2656,583.6875 285.2656,581.9844 L285.2656,580.8906 C285.2656,579.1094 286.5156,577.7969 288.25,577.7969 C288.8281,577.7969 289.4375,577.9531 289.9063,578.2031 C290.3906,578.4844 290.5625,578.7031 290.6563,579.1094 C290.7188,579.5156 290.75,579.6406 290.8906,579.7656 C291.0313,579.9063 291.2656,580.0156 291.4844,580.0156 C291.75,580.0156 292.0156,579.875 292.1875,579.6563 C292.2969,579.5 292.3281,579.3125 292.3281,578.8906 L292.3281,577.4688 C292.3281,577.0313 292.3125,576.9063 292.2188,576.75 C292.0625,576.4844 291.7813,576.3438 291.4844,576.3438 C291.1875,576.3438 290.9844,576.4375 290.7656,576.75 L290.5938,576.6719 Z " fill="#000000"></path><text fill="#000000" font-family="sans-serif" font-size="14" lengthAdjust="spacing" textLength="68" x="308.75" y="585.8467">Pokemon</text><line style="stroke:#181818;stroke-width:0.5;" x1="8" x2="645" y1="597" y2="597"></line><rect fill="none" height="6" style="stroke:#C82930;stroke-width:1.0;" width="6" x="15" y="607.6484"></rect><text fill="#000000" font-family="sans-serif" font-size="14" lengthAdjust="spacing" textLength="95" x="27" y="613.9951">name : string</text><rect fill="none" height="6" style="stroke:#C82930;stroke-width:1.0;" width="6" x="15" y="623.9453"></rect><text fill="#000000" font-family="sans-serif" font-size="14" lengthAdjust="spacing" textLength="175" x="27" y="630.292">DEF_DAMAGE : const int</text><rect fill="none" height="6" style="stroke:#C82930;stroke-width:1.0;" width="6" x="15" y="640.2422"></rect><text fill="#000000" font-family="sans-serif" font-size="14" lengthAdjust="spacing" textLength="106" x="27" y="646.5889">hit_points : int</text><rect fill="none" height="6" style="stroke:#C82930;stroke-width:1.0;" width="6" x="15" y="656.5391"></rect><text fill="#000000" font-family="sans-serif" font-size="14" lengthAdjust="spacing" textLength="137" x="27" y="662.8857">initial_damage : int</text><rect fill="none" height="6" style="stroke:#C82930;stroke-width:1.0;" width="6" x="15" y="672.8359"></rect><text fill="#000000" font-family="sans-serif" font-size="14" lengthAdjust="spacing" textLength="219" x="27" y="679.1826">power_up_chance : const float</text><rect fill="none" height="6" style="stroke:#C82930;stroke-width:1.0;" width="6" x="15" y="689.1328"></rect><text fill="#000000" font-family="sans-serif" font-size="14" lengthAdjust="spacing" textLength="141" x="27" y="695.4795">recharge : const int</text><rect fill="none" height="6" style="stroke:#C82930;stroke-width:1.0;" width="6" x="15" y="705.4297"></rect><text fill="#000000" font-family="sans-serif" font-size="14" lengthAdjust="spacing" textLength="138" x="27" y="711.7764">isOwnTerrain : bool</text><rect fill="none" height="6" style="stroke:#C82930;stroke-width:1.0;" width="6" x="15" y="721.7266"></rect><text fill="#000000" font-family="sans-serif" font-size="14" lengthAdjust="spacing" textLength="119" x="27" y="728.0732">isPowerUp : bool</text><rect fill="none" height="6" style="stroke:#C82930;stroke-width:1.0;" width="6" x="15" y="738.0234"></rect><text fill="#000000" font-family="sans-serif" font-size="14" lengthAdjust="spacing" textLength="140" x="27" y="744.3701">rechargeCount : int</text><rect fill="none" height="6" style="stroke:#C82930;stroke-width:1.0;" width="6" x="15" y="754.3203"></rect><text fill="#000000" font-family="sans-serif" font-size="14" lengthAdjust="spacing" textLength="110" x="27" y="760.667">isFainted : bool</text><rect fill="none" height="6" style="stroke:#C82930;stroke-width:1.0;" width="6" x="15" y="770.6172"></rect><text fill="#000000" font-family="sans-serif" font-size="14" lengthAdjust="spacing" textLength="123" x="27" y="776.9639">isConfused : bool</text><rect fill="none" height="6" style="stroke:#C82930;stroke-width:1.0;" width="6" x="15" y="786.9141"></rect><text fill="#000000" font-family="sans-serif" font-size="14" lengthAdjust="spacing" textLength="154" x="27" y="793.2607">isConfusedCount : int</text><line style="stroke:#181818;stroke-width:0.5;" x1="8" x2="645" y1="800.5625" y2="800.5625"></line><ellipse cx="18" cy="814.2109" fill="#84BE84" rx="3" ry="3" style="stroke:#038048;stroke-width:1.0;"></ellipse><text fill="#000000" font-family="sans-serif" font-size="14" lengthAdjust="spacing" textLength="613" x="27" y="817.5576">Pokemon(name : string, hp : int, damage : int, powerUp_chance : float, recharge : int)</text><ellipse cx="18" cy="830.5078" fill="#84BE84" rx="3" ry="3" style="stroke:#038048;stroke-width:1.0;"></ellipse><text fill="#000000" font-family="sans-serif" font-size="14" lengthAdjust="spacing" textLength="138" x="27" y="833.8545">virtual ~Pokemon()</text><ellipse cx="18" cy="846.8047" fill="#84BE84" rx="3" ry="3" style="stroke:#038048;stroke-width:1.0;"></ellipse><text fill="#000000" font-family="sans-serif" font-size="14" lengthAdjust="spacing" textLength="305" x="27" y="850.1514">virtual powerUp(opponent : Pokemon*) {}</text><ellipse cx="18" cy="863.1016" fill="#84BE84" rx="3" ry="3" style="stroke:#038048;stroke-width:1.0;"></ellipse><text fill="#000000" font-family="sans-serif" font-size="14" lengthAdjust="spacing" textLength="306" x="27" y="866.4482">virtual attackTo(opponent : Pokemon*) {}</text><ellipse cx="18" cy="879.3984" fill="#84BE84" rx="3" ry="3" style="stroke:#038048;stroke-width:1.0;"></ellipse><text fill="#000000" font-family="sans-serif" font-size="14" lengthAdjust="spacing" textLength="321" x="27" y="882.7451">virtual checkIsOwnTerrain(terrain : string) {}</text><ellipse cx="18" cy="895.6953" fill="#84BE84" rx="3" ry="3" style="stroke:#038048;stroke-width:1.0;"></ellipse><text fill="#000000" font-family="sans-serif" font-size="14" lengthAdjust="spacing" textLength="166" x="27" y="899.042">virtual resPowerUp() {}</text><ellipse cx="18" cy="911.9922" fill="#84BE84" rx="3" ry="3" style="stroke:#038048;stroke-width:1.0;"></ellipse><text fill="#000000" font-family="sans-serif" font-size="14" lengthAdjust="spacing" textLength="131" x="27" y="915.3389">getName() : string</text><ellipse cx="18" cy="928.2891" fill="#84BE84" rx="3" ry="3" style="stroke:#038048;stroke-width:1.0;"></ellipse><text fill="#000000" font-family="sans-serif" font-size="14" lengthAdjust="spacing" textLength="134" x="27" y="931.6357">getHitPoints() : int</text><ellipse cx="18" cy="944.5859" fill="#84BE84" rx="3" ry="3" style="stroke:#038048;stroke-width:1.0;"></ellipse><text fill="#000000" font-family="sans-serif" font-size="14" lengthAdjust="spacing" textLength="151" x="27" y="947.9326">setHitPoints(hp : int)</text><ellipse cx="18" cy="960.8828" fill="#84BE84" rx="3" ry="3" style="stroke:#038048;stroke-width:1.0;"></ellipse><text fill="#000000" font-family="sans-serif" font-size="14" lengthAdjust="spacing" textLength="179" x="27" y="964.2295">getRechargeCount() : int</text><ellipse cx="18" cy="977.1797" fill="#84BE84" rx="3" ry="3" style="stroke:#038048;stroke-width:1.0;"></ellipse><text fill="#000000" font-family="sans-serif" font-size="14" lengthAdjust="spacing" textLength="208" x="27" y="980.5264">setRechargeCount(num : int)</text><ellipse cx="18" cy="993.4766" fill="#84BE84" rx="3" ry="3" style="stroke:#038048;stroke-width:1.0;"></ellipse><text fill="#000000" font-family="sans-serif" font-size="14" lengthAdjust="spacing" textLength="173" x="27" y="996.8232">getIsOwnTerrain() : bool</text><ellipse cx="18" cy="1009.7734" fill="#84BE84" rx="3" ry="3" style="stroke:#038048;stroke-width:1.0;"></ellipse><text fill="#000000" font-family="sans-serif" font-size="14" lengthAdjust="spacing" textLength="264" x="27" y="1013.1201">setIsOwnTerrain(isOwnTerrain : bool)</text><ellipse cx="18" cy="1026.0703" fill="#84BE84" rx="3" ry="3" style="stroke:#038048;stroke-width:1.0;"></ellipse><text fill="#000000" font-family="sans-serif" font-size="14" lengthAdjust="spacing" textLength="154" x="27" y="1029.417">getIsPowerUp() : bool</text><ellipse cx="18" cy="1042.3672" fill="#84BE84" rx="3" ry="3" style="stroke:#038048;stroke-width:1.0;"></ellipse><text fill="#000000" font-family="sans-serif" font-size="14" lengthAdjust="spacing" textLength="226" x="27" y="1045.7139">setIsPowerUp(isPowerUp : bool)</text><ellipse cx="18" cy="1058.6641" fill="#84BE84" rx="3" ry="3" style="stroke:#038048;stroke-width:1.0;"></ellipse><text fill="#000000" font-family="sans-serif" font-size="14" lengthAdjust="spacing" textLength="198" x="27" y="1062.0107">getPowerUpChance() : float</text><ellipse cx="18" cy="1074.9609" fill="#84BE84" rx="3" ry="3" style="stroke:#038048;stroke-width:1.0;"></ellipse><text fill="#000000" font-family="sans-serif" font-size="14" lengthAdjust="spacing" textLength="136" x="27" y="1078.3076">getRecharge() : int</text><ellipse cx="18" cy="1091.2578" fill="#84BE84" rx="3" ry="3" style="stroke:#038048;stroke-width:1.0;"></ellipse><text fill="#000000" font-family="sans-serif" font-size="14" lengthAdjust="spacing" textLength="145" x="27" y="1094.6045">getIsFainted() : bool</text><ellipse cx="18" cy="1107.5547" fill="#84BE84" rx="3" ry="3" style="stroke:#038048;stroke-width:1.0;"></ellipse><text fill="#000000" font-family="sans-serif" font-size="14" lengthAdjust="spacing" textLength="222" x="27" y="1110.9014">setInitialDamage(damage : int)</text><ellipse cx="18" cy="1123.8516" fill="#84BE84" rx="3" ry="3" style="stroke:#038048;stroke-width:1.0;"></ellipse><text fill="#000000" font-family="sans-serif" font-size="14" lengthAdjust="spacing" textLength="167" x="27" y="1127.1982">getInitialDamage() : int</text><ellipse cx="18" cy="1140.1484" fill="#84BE84" rx="3" ry="3" style="stroke:#038048;stroke-width:1.0;"></ellipse><text fill="#000000" font-family="sans-serif" font-size="14" lengthAdjust="spacing" textLength="158" x="27" y="1143.4951">getIsConfused() : bool</text><ellipse cx="18" cy="1156.4453" fill="#84BE84" rx="3" ry="3" style="stroke:#038048;stroke-width:1.0;"></ellipse><text fill="#000000" font-family="sans-serif" font-size="14" lengthAdjust="spacing" textLength="234" x="27" y="1159.792">setIsConfused(isConfused : bool)</text><ellipse cx="18" cy="1172.7422" fill="#84BE84" rx="3" ry="3" style="stroke:#038048;stroke-width:1.0;"></ellipse><text fill="#000000" font-family="sans-serif" font-size="14" lengthAdjust="spacing" textLength="197" x="27" y="1176.0889">getDefDamage() : const int</text><ellipse cx="18" cy="1189.0391" fill="#84BE84" rx="3" ry="3" style="stroke:#038048;stroke-width:1.0;"></ellipse><text fill="#000000" font-family="sans-serif" font-size="14" lengthAdjust="spacing" textLength="189" x="27" y="1192.3857">getIsConfusedCount() : int</text><ellipse cx="18" cy="1205.3359" fill="#84BE84" rx="3" ry="3" style="stroke:#038048;stroke-width:1.0;"></ellipse><text fill="#000000" font-family="sans-serif" font-size="14" lengthAdjust="spacing" textLength="304" x="27" y="1208.6826">setIsConfusedCount(isConfusedCount: int)</text></g><!--class ElectricPokemon--><g id="elem_ElectricPokemon"><rect codeline="41" fill="#F1F1F1" height="129.4844" id="ElectricPokemon" rx="2.5" ry="2.5" style="stroke:#181818;stroke-width:0.5;" width="400" x="261.5" y="376"></rect><ellipse cx="395.75" cy="392" fill="#ADD1B2" rx="11" ry="11" style="stroke:#181818;stroke-width:1.0;"></ellipse><path d="M398.0938,387.6719 C397.1563,387.2344 396.5625,387.0938 395.6875,387.0938 C393.0625,387.0938 391.0625,389.1719 391.0625,391.8906 L391.0625,393.0156 C391.0625,395.5938 393.1719,397.4844 396.0625,397.4844 C397.2813,397.4844 398.4375,397.1875 399.1875,396.6406 C399.7656,396.2344 400.0938,395.7813 400.0938,395.3906 C400.0938,394.9375 399.7031,394.5469 399.2344,394.5469 C399.0156,394.5469 398.8125,394.625 398.625,394.8125 C398.1719,395.2969 398.1719,395.2969 397.9844,395.3906 C397.5625,395.6563 396.875,395.7813 396.1094,395.7813 C394.0625,395.7813 392.7656,394.6875 392.7656,392.9844 L392.7656,391.8906 C392.7656,390.1094 394.0156,388.7969 395.75,388.7969 C396.3281,388.7969 396.9375,388.9531 397.4063,389.2031 C397.8906,389.4844 398.0625,389.7031 398.1563,390.1094 C398.2188,390.5156 398.25,390.6406 398.3906,390.7656 C398.5313,390.9063 398.7656,391.0156 398.9844,391.0156 C399.25,391.0156 399.5156,390.875 399.6875,390.6563 C399.7969,390.5 399.8281,390.3125 399.8281,389.8906 L399.8281,388.4688 C399.8281,388.0313 399.8125,387.9063 399.7188,387.75 C399.5625,387.4844 399.2813,387.3438 398.9844,387.3438 C398.6875,387.3438 398.4844,387.4375 398.2656,387.75 L398.0938,387.6719 Z " fill="#000000"></path><text fill="#000000" font-family="sans-serif" font-size="14" lengthAdjust="spacing" textLength="123" x="416.25" y="396.8467">ElectricPokemon</text><line style="stroke:#181818;stroke-width:0.5;" x1="262.5" x2="660.5" y1="408" y2="408"></line><line style="stroke:#181818;stroke-width:0.5;" x1="262.5" x2="660.5" y1="416" y2="416"></line><ellipse cx="272.5" cy="429.6484" fill="#84BE84" rx="3" ry="3" style="stroke: #02140c;stroke-width:1.0;"></ellipse><text fill="#000000" font-family="sans-serif" font-size="14" lengthAdjust="spacing" textLength="374" x="281.5" y="432.9951">ElectricPokemon(name: string, hp: int, damage: int)</text><ellipse cx="272.5" cy="445.9453" fill="#84BE84" rx="3" ry="3" style="stroke:#038048;stroke-width:1.0;"></ellipse><text fill="#000000" font-family="sans-serif" font-size="14" lengthAdjust="spacing" textLength="294" x="281.5" y="449.292">powerUp(opponent: Pokemon*) override</text><ellipse cx="272.5" cy="462.2422" fill="#84BE84" rx="3" ry="3" style="stroke:#038048;stroke-width:1.0;"></ellipse><text fill="#000000" font-family="sans-serif" font-size="14" lengthAdjust="spacing" textLength="295" x="281.5" y="465.5889">attackTo(opponent: Pokemon*) override</text><ellipse cx="272.5" cy="478.5391" fill="#84BE84" rx="3" ry="3" style="stroke:#038048;stroke-width:1.0;"></ellipse><text fill="#000000" font-family="sans-serif" font-size="14" lengthAdjust="spacing" textLength="95" x="281.5" y="481.8857">resPowerUp()</text><ellipse cx="272.5" cy="494.8359" fill="#84BE84" rx="3" ry="3" style="stroke:#038048;stroke-width:1.0;"></ellipse><text fill="#000000" font-family="sans-serif" font-size="14" lengthAdjust="spacing" textLength="310" x="281.5" y="498.1826">checkIsOwnTerrain(terrain: string) override</text></g><!--class PsychicPokemon--><g id="elem_PsychicPokemon"><rect codeline="49" fill="#F1F1F1" height="129.4844" id="PsychicPokemon" rx="2.5" ry="2.5" style="stroke:#181818;stroke-width:0.5;" width="398" x="696.5" y="376"></rect><ellipse cx="830.75" cy="392" fill="#ADD1B2" rx="11" ry="11" style="stroke:#181818;stroke-width:1.0;"></ellipse><path d="M833.0938,387.6719 C832.1563,387.2344 831.5625,387.0938 830.6875,387.0938 C828.0625,387.0938 826.0625,389.1719 826.0625,391.8906 L826.0625,393.0156 C826.0625,395.5938 828.1719,397.4844 831.0625,397.4844 C832.2813,397.4844 833.4375,397.1875 834.1875,396.6406 C834.7656,396.2344 835.0938,395.7813 835.0938,395.3906 C835.0938,394.9375 834.7031,394.5469 834.2344,394.5469 C834.0156,394.5469 833.8125,394.625 833.625,394.8125 C833.1719,395.2969 833.1719,395.2969 832.9844,395.3906 C832.5625,395.6563 831.875,395.7813 831.1094,395.7813 C829.0625,395.7813 827.7656,394.6875 827.7656,392.9844 L827.7656,391.8906 C827.7656,390.1094 829.0156,388.7969 830.75,388.7969 C831.3281,388.7969 831.9375,388.9531 832.4063,389.2031 C832.8906,389.4844 833.0625,389.7031 833.1563,390.1094 C833.2188,390.5156 833.25,390.6406 833.3906,390.7656 C833.5313,390.9063 833.7656,391.0156 833.9844,391.0156 C834.25,391.0156 834.5156,390.875 834.6875,390.6563 C834.7969,390.5 834.8281,390.3125 834.8281,389.8906 L834.8281,388.4688 C834.8281,388.0313 834.8125,387.9063 834.7188,387.75 C834.5625,387.4844 834.2813,387.3438 833.9844,387.3438 C833.6875,387.3438 833.4844,387.4375 833.2656,387.75 L833.0938,387.6719 Z " fill="#000000"></path><text fill="#000000" font-family="sans-serif" font-size="14" lengthAdjust="spacing" textLength="121" x="851.25" y="396.8467">PsychicPokemon</text><line style="stroke:#181818;stroke-width:0.5;" x1="697.5" x2="1093.5" y1="408" y2="408"></line><line style="stroke:#181818;stroke-width:0.5;" x1="697.5" x2="1093.5" y1="416" y2="416"></line><ellipse cx="707.5" cy="429.6484" fill="#84BE84" rx="3" ry="3" style="stroke:#038048;stroke-width:1.0;"></ellipse><text fill="#000000" font-family="sans-serif" font-size="14" lengthAdjust="spacing" textLength="372" x="716.5" y="432.9951">PsychicPokemon(name: string, hp: int, damage: int)</text><ellipse cx="707.5" cy="445.9453" fill="#84BE84" rx="3" ry="3" style="stroke:#038048;stroke-width:1.0;"></ellipse><text fill="#000000" font-family="sans-serif" font-size="14" lengthAdjust="spacing" textLength="294" x="716.5" y="449.292">powerUp(opponent: Pokemon*) override</text><ellipse cx="707.5" cy="462.2422" fill="#84BE84" rx="3" ry="3" style="stroke:#038048;stroke-width:1.0;"></ellipse><text fill="#000000" font-family="sans-serif" font-size="14" lengthAdjust="spacing" textLength="295" x="716.5" y="465.5889">attackTo(opponent: Pokemon*) override</text><ellipse cx="707.5" cy="478.5391" fill="#84BE84" rx="3" ry="3" style="stroke:#038048;stroke-width:1.0;"></ellipse><text fill="#000000" font-family="sans-serif" font-size="14" lengthAdjust="spacing" textLength="95" x="716.5" y="481.8857">resPowerUp()</text><ellipse cx="707.5" cy="494.8359" fill="#84BE84" rx="3" ry="3" style="stroke:#038048;stroke-width:1.0;"></ellipse><text fill="#000000" font-family="sans-serif" font-size="14" lengthAdjust="spacing" textLength="310" x="716.5" y="498.1826">checkIsOwnTerrain(terrain: string) override</text></g><!--class Arena--><g id="elem_Arena"><rect codeline="57" fill="#F1F1F1" height="308.75" id="Arena" rx="2.5" ry="2.5" style="stroke:#181818;stroke-width:0.5;" width="453" x="100" y="7"></rect><ellipse cx="301.25" cy="23" fill="#ADD1B2" rx="11" ry="11" style="stroke:#181818;stroke-width:1.0;"></ellipse><path d="M303.5938,18.6719 C302.6563,18.2344 302.0625,18.0938 301.1875,18.0938 C298.5625,18.0938 296.5625,20.1719 296.5625,22.8906 L296.5625,24.0156 C296.5625,26.5938 298.6719,28.4844 301.5625,28.4844 C302.7813,28.4844 303.9375,28.1875 304.6875,27.6406 C305.2656,27.2344 305.5938,26.7813 305.5938,26.3906 C305.5938,25.9375 305.2031,25.5469 304.7344,25.5469 C304.5156,25.5469 304.3125,25.625 304.125,25.8125 C303.6719,26.2969 303.6719,26.2969 303.4844,26.3906 C303.0625,26.6563 302.375,26.7813 301.6094,26.7813 C299.5625,26.7813 298.2656,25.6875 298.2656,23.9844 L298.2656,22.8906 C298.2656,21.1094 299.5156,19.7969 301.25,19.7969 C301.8281,19.7969 302.4375,19.9531 302.9063,20.2031 C303.3906,20.4844 303.5625,20.7031 303.6563,21.1094 C303.7188,21.5156 303.75,21.6406 303.8906,21.7656 C304.0313,21.9063 304.2656,22.0156 304.4844,22.0156 C304.75,22.0156 305.0156,21.875 305.1875,21.6563 C305.2969,21.5 305.3281,21.3125 305.3281,20.8906 L305.3281,19.4688 C305.3281,19.0313 305.3125,18.9063 305.2188,18.75 C305.0625,18.4844 304.7813,18.3438 304.4844,18.3438 C304.1875,18.3438 303.9844,18.4375 303.7656,18.75 L303.5938,18.6719 Z " fill="#000000"></path><text fill="#000000" font-family="sans-serif" font-size="14" lengthAdjust="spacing" textLength="42" x="321.75" y="27.8467">Arena</text><line style="stroke:#181818;stroke-width:0.5;" x1="101" x2="552" y1="39" y2="39"></line><rect fill="none" height="6" style="stroke:#C82930;stroke-width:1.0;" width="6" x="108" y="49.6484"></rect><text fill="#000000" font-family="sans-serif" font-size="14" lengthAdjust="spacing" textLength="160" x="120" y="55.9951">current_terrain: string</text><rect fill="none" height="6" style="stroke:#C82930;stroke-width:1.0;" width="6" x="108" y="65.9453"></rect><text fill="#000000" font-family="sans-serif" font-size="14" lengthAdjust="spacing" textLength="145" x="120" y="72.292">terrain_duration: int</text><rect fill="none" height="6" style="stroke:#C82930;stroke-width:1.0;" width="6" x="108" y="82.2422"></rect><text fill="#000000" font-family="sans-serif" font-size="14" lengthAdjust="spacing" textLength="238" x="120" y="88.5889">MAX_POKEMONS: static const int</text><rect fill="none" height="6" style="stroke:#C82930;stroke-width:1.0;" width="6" x="108" y="98.5391"></rect><text fill="#000000" font-family="sans-serif" font-size="14" lengthAdjust="spacing" textLength="290" x="120" y="104.8857">pokemons: Pokemon*[MAX_POKEMONS]</text><rect fill="none" height="6" style="stroke:#C82930;stroke-width:1.0;" width="6" x="108" y="114.8359"></rect><text fill="#000000" font-family="sans-serif" font-size="14" lengthAdjust="spacing" textLength="68" x="120" y="121.1826">index: int</text><line style="stroke:#181818;stroke-width:0.5;" x1="101" x2="552" y1="128.4844" y2="128.4844"></line><ellipse cx="111" cy="142.1328" fill="#84BE84" rx="3" ry="3" style="stroke:#038048;stroke-width:1.0;"></ellipse><text fill="#000000" font-family="sans-serif" font-size="14" lengthAdjust="spacing" textLength="427" x="120" y="145.4795">addPokemon(type: char, name: string, hp: int, damage: int)</text><ellipse cx="111" cy="158.4297" fill="#84BE84" rx="3" ry="3" style="stroke:#038048;stroke-width:1.0;"></ellipse><text fill="#000000" font-family="sans-serif" font-size="14" lengthAdjust="spacing" textLength="116" x="120" y="161.7764">simulateBattle()</text><ellipse cx="111" cy="174.7266" fill="#84BE84" rx="3" ry="3" style="stroke:#038048;stroke-width:1.0;"></ellipse><text fill="#000000" font-family="sans-serif" font-size="14" lengthAdjust="spacing" textLength="111" x="120" y="178.0732">restartTerrain()</text><ellipse cx="111" cy="191.0234" fill="#84BE84" rx="3" ry="3" style="stroke:#038048;stroke-width:1.0;"></ellipse><text fill="#000000" font-family="sans-serif" font-size="14" lengthAdjust="spacing" textLength="106" x="120" y="194.3701">spawnTerrain()</text><ellipse cx="111" cy="207.3203" fill="#84BE84" rx="3" ry="3" style="stroke:#038048;stroke-width:1.0;"></ellipse><text fill="#000000" font-family="sans-serif" font-size="14" lengthAdjust="spacing" textLength="278" x="120" y="210.667">printRoundStats(round: int, heads: int)</text><ellipse cx="111" cy="223.6172" fill="#84BE84" rx="3" ry="3" style="stroke:#038048;stroke-width:1.0;"></ellipse><text fill="#000000" font-family="sans-serif" font-size="14" lengthAdjust="spacing" textLength="99" x="120" y="226.9639">isMatchOver()</text><ellipse cx="111" cy="239.9141" fill="#84BE84" rx="3" ry="3" style="stroke:#038048;stroke-width:1.0;"></ellipse><text fill="#000000" font-family="sans-serif" font-size="14" lengthAdjust="spacing" textLength="142" x="120" y="243.2607">printMatchResults()</text><ellipse cx="111" cy="256.2109" fill="#84BE84" rx="3" ry="3" style="stroke:#038048;stroke-width:1.0;"></ellipse><text fill="#000000" font-family="sans-serif" font-size="14" lengthAdjust="spacing" textLength="177" x="120" y="259.5576">getTerrainDuration(): int</text><ellipse cx="111" cy="272.5078" fill="#84BE84" rx="3" ry="3" style="stroke:#038048;stroke-width:1.0;"></ellipse><text fill="#000000" font-family="sans-serif" font-size="14" lengthAdjust="spacing" textLength="206" x="120" y="275.8545">setTerrainDuration(num: int)</text><ellipse cx="111" cy="288.8047" fill="#84BE84" rx="3" ry="3" style="stroke:#038048;stroke-width:1.0;"></ellipse><text fill="#000000" font-family="sans-serif" font-size="14" lengthAdjust="spacing" textLength="192" x="120" y="292.1514">getCurrentTerrain(): string</text><ellipse cx="111" cy="305.1016" fill="#84BE84" rx="3" ry="3" style="stroke:#038048;stroke-width:1.0;"></ellipse><text fill="#000000" font-family="sans-serif" font-size="14" lengthAdjust="spacing" textLength="239" x="120" y="308.4482">setCurrentTerrain(terrain: string)</text></g><!--link ElectricPokemon to Pokemon--><g id="link_ElectricPokemon_Pokemon"><path codeline="76" d="M442.301,505.212 C438.632,517.389 434.562,530.894 430.207,545.347 " fill="none" id="ElectricPokemon-to-Pokemon" style="stroke:#181818;stroke-width:1.0;"></path><polygon fill="none" points="436.799,547.731,424.326,564.861,423.395,543.692,436.799,547.731" style="stroke:#181818;stroke-width:1.0;"></polygon></g><!--link PsychicPokemon to Pokemon--><g id="link_PsychicPokemon_Pokemon"><path codeline="77" d="M814.58,505.212 C772.774,538.128 718.652,580.741 661.73,625.558 " fill="none" id="PsychicPokemon-to-Pokemon" style="stroke:#181818;stroke-width:1.0;"></path><polygon fill="none" points="666.054,631.063,646.01,637.935,657.393,620.063,666.054,631.063" style="stroke:#181818;stroke-width:1.0;"></polygon></g><!--link Arena to Pokemon--><g id="link_Arena_Pokemon"><path codeline="78" d="M242.202,316.195 C235.673,336.002 230.202,356.261 226.5,376 C215.389,435.245 215.715,498.505 222.57,559.659 " fill="none" id="Arena-to-Pokemon" style="stroke:#181818;stroke-width:1.0;stroke-dasharray:7.0,7.0;"></path><polygon fill="#181818" points="223.163,564.811,226.1082,555.4128,222.5916,559.8438,218.1606,556.3271,223.163,564.811" style="stroke:#181818;stroke-width:1.0;"></polygon></g><!--reverse link Arena to Pokemon--><g id="link_Arena_Pokemon"><path codeline="81" d="M273.086,328.78 C268.444,344.525 264.421,360.425 261.5,376 C250.077,436.911 250.742,502.065 257.489,564.811 " fill="none" id="Arena-backto-Pokemon" style="stroke:#181818;stroke-width:1.0;"></path><polygon fill="#181818" points="276.933,316.195,271.3533,320.763,273.4239,327.6705,279.0036,323.1024,276.933,316.195" style="stroke:#181818;stroke-width:1.0;"></polygon></g><!--link Arena to ElectricPokemon--><g id="link_Arena_ElectricPokemon"><path codeline="79" d="M401.501,316.391 C410.82,335.513 419.947,354.239 428.158,371.087 " fill="none" id="Arena-to-ElectricPokemon" style="stroke:#181818;stroke-width:1.0;stroke-dasharray:7.0,7.0;"></path><polygon fill="#181818" points="430.449,375.788,430.0999,365.9453,428.2576,371.2938,422.9091,369.4516,430.449,375.788" style="stroke:#181818;stroke-width:1.0;"></polygon></g><!--link Arena to PsychicPokemon--><g id="link_Arena_PsychicPokemon"><path codeline="80" d="M553.019,272.774 C623.093,306.887 698.069,343.387 759.95,373.512 " fill="none" id="Arena-to-PsychicPokemon" style="stroke:#181818;stroke-width:1.0;stroke-dasharray:7.0,7.0;"></path><polygon fill="#181818" points="764.759,375.853,758.4197,368.3156,760.264,373.6633,754.9162,375.5076,764.759,375.853" style="stroke:#181818;stroke-width:1.0;"></polygon></g><!--SRC=[tLRBRjim4BpxAtYK4piVq4C1rtRQed1i92bGe0W4bc8i8Z8fa5JI84s_lIi-f2KT0pdtPktipdA6kuHPGuqXE_N03qgIbmaXSqaFd7mWnceXztrWjRuiLulDulCQman9OucGjaTgOSjMmOS19CI455RGfgpeWUxv66_L4zTbrvQiffBnWUg-KTGbQ0w8tlEyYJ3R9tdBjQP20lPBgSQ7TptZznR58iLITTAY8vbBgBMyIigNIjvtvaGmPJWF1XM9DpDIjpvbHh3Q6MdzoKQfJkIC88cGD-sP7uMs7Mt8tzWYYGQYGhMjajoTAEITJSdBAqwbrbBsSAlUayjgpXw-8byBE_ZhjUKLcaUxYmZjkRq2E-0R3KiV_IBipWs5WuA31iUZRzDGSOtlBQjACTaTqj94nNIyoxuqmTuOev5Zr9OHH22VjbWQeajtqQuypZFMXIMvVc4UZ_hvtLcvOIhmJ0r7JJ9osZYznpe6v6Zk8_EAtoDMl84fzrjtbAFP7WK5hvC9Sy_Dkk4C1eRXPmU8ih1RDhnhoQeDha1XlYLuyDKZNBcekCyyMfBJgNZYVUJarenBCr0CMdVccTL7KjFe_w5qeRcaGU2STHe-RPdLUJ04owhJr0ebdKBYiStYHxdRVbjljbStVHKai74QGrBhbPXHqqzST-UpXApuRyHzJgigEcwVMp2styuPURVxHXowXbh-2SnjU3GBxBDKs-4D2hajHUzIk3teOAzX8weRq6KAtVyCtMfEAuER2REXbjLRy3cfTz5hRhgcVs0z00iQMgs2fSKK2pV7E3oak1imBFsL3MUEbemSMKO-4_qevAizd__vEFozc6JBa89-VYuktWpbl3Wx9Gt8sJpI_0C0]--></g></svg>